<svg width="49" height="46" viewBox="0 0 49 46" fill="none" xmlns="http://www.w3.org/2000/svg">
<path d="M0.321777 0H40.3218C44.7401 0 48.3218 3.58172 48.3218 8V46H8.32178C3.9035 46 0.321777 42.4183 0.321777 38V0Z" fill="#FF8100"/>
<path d="M35 15L33.7987 31.0172C33.6935 32.42 33.6408 33.1215 33.3 33.6533C32.9999 34.1216 32.5472 34.498 32.0017 34.7331C31.382 35 30.591 35 29.0093 35H22.9907C21.4089 35 20.618 35 19.9983 34.7331C19.4528 34.498 19.0001 34.1216 18.7 33.6533C18.3591 33.1215 18.3065 32.42 18.2013 31.0172L17 15M14 15H38M32 15L31.5941 13.9174C31.2006 12.8683 31.0039 12.3438 30.6391 11.956C30.3169 11.6135 29.9031 11.3484 29.4357 11.185C28.9064 11 28.2845 11 27.0404 11H24.9596C23.7155 11 23.0936 11 22.5643 11.185C22.0969 11.3484 21.6831 11.6135 21.3609 11.956C20.9961 12.3438 20.7994 12.8683 20.406 13.9174L20 15M29 20.3333V29.6667M23 20.3333V29.6667" stroke="#FAFFFD" stroke-width="2" stroke-linecap="round" stroke-linejoin="round"/>
</svg>
