<svg width="26" height="26" viewBox="0 0 26 26" fill="none" xmlns="http://www.w3.org/2000/svg">
<path d="M22 5.00001L20.7987 21.0172C20.6935 22.42 20.6408 23.1215 20.3 23.6533C19.9999 24.1216 19.5472 24.498 19.0017 24.7331C18.382 25 17.591 25 16.0093 25H9.99065C8.4089 25 7.61803 25 6.99833 24.7331C6.45275 24.498 6.00008 24.1216 5.69998 23.6533C5.3591 23.1215 5.3065 22.42 5.20129 21.0172L4 5.00001M1 5.00001H25M19 5.00001L18.5941 3.91743C18.2006 2.86834 18.0039 2.34379 17.6391 1.95598C17.3169 1.61351 16.9031 1.34843 16.4357 1.18505C15.9064 1.00001 15.2845 1.00001 14.0404 1.00001H11.9596C10.7155 1.00001 10.0936 1.00001 9.56426 1.18505C9.09688 1.34843 8.68312 1.61351 8.36094 1.95598C7.99608 2.34379 7.79938 2.86834 7.40596 3.91743L7 5.00001M16 10.3333V19.6667M10 10.3333V19.6667" stroke="#FAFFFD" stroke-width="2" stroke-linecap="round" stroke-linejoin="round"/>
</svg>
