<svg width="210" height="210" viewBox="0 0 248 248" fill="none" xmlns="http://www.w3.org/2000/svg">
<path d="M72.3335 186C60.9668 186 51.7702 195.3 51.7702 206.667C51.7702 218.033 60.9668 227.333 72.3335 227.333C83.7002 227.333 93.0002 218.033 93.0002 206.667C93.0002 195.3 83.7002 186 72.3335 186ZM10.3335 20.6667V41.3334H31.0002L68.2002 119.763L54.2502 145.08C52.5968 147.973 51.6668 151.383 51.6668 155C51.6668 166.367 60.9668 175.667 72.3335 175.667H196.334V155H76.6735C75.2268 155 74.0902 153.863 74.0902 152.417L74.4002 151.177L83.7002 134.333H160.684C168.434 134.333 175.253 130.097 178.767 123.69L215.76 56.6268C216.587 55.1801 217 53.4234 217 51.6667C217 45.9834 212.35 41.3334 206.667 41.3334H53.8368L44.1235 20.6667H10.3335ZM175.667 186C164.3 186 155.104 195.3 155.104 206.667C155.104 218.033 164.3 227.333 175.667 227.333C187.034 227.333 196.334 218.033 196.334 206.667C196.334 195.3 187.034 186 175.667 186Z" fill="#FF8100"/>
</svg>
