<svg width="16" height="17" viewBox="0 0 16 17" fill="none" xmlns="http://www.w3.org/2000/svg">
<path d="M14.4325 13.75C13.4807 12.1044 12.0138 10.9244 10.3019 10.365C11.1487 9.86092 11.8066 9.09281 12.1746 8.17863C12.5425 7.26445 12.6002 6.25476 12.3388 5.3046C12.0774 4.35445 11.5113 3.51638 10.7275 2.91908C9.94372 2.32179 8.9855 1.99831 8.00005 1.99831C7.01459 1.99831 6.05638 2.32179 5.27256 2.91908C4.48875 3.51638 3.92267 4.35445 3.66126 5.3046C3.39985 6.25476 3.45756 7.26445 3.82554 8.17863C4.19351 9.09281 4.8514 9.86092 5.69817 10.365C3.9863 10.9238 2.51942 12.1038 1.56755 13.75C1.53264 13.8069 1.50949 13.8703 1.49945 13.9363C1.48942 14.0023 1.49271 14.0696 1.50912 14.1343C1.52554 14.1991 1.55476 14.2598 1.59504 14.3131C1.63533 14.3663 1.68587 14.411 1.74369 14.4444C1.8015 14.4778 1.86542 14.4992 1.93168 14.5075C1.99793 14.5158 2.06517 14.5108 2.12944 14.4927C2.1937 14.4745 2.25369 14.4437 2.30585 14.4021C2.35802 14.3604 2.40131 14.3087 2.43317 14.25C3.61067 12.215 5.69192 11 8.00005 11C10.3082 11 12.3894 12.215 13.5669 14.25C13.5988 14.3087 13.6421 14.3604 13.6942 14.4021C13.7464 14.4437 13.8064 14.4745 13.8707 14.4927C13.9349 14.5108 14.0022 14.5158 14.0684 14.5075C14.1347 14.4992 14.1986 14.4778 14.2564 14.4444C14.3142 14.411 14.3648 14.3663 14.4051 14.3131C14.4453 14.2598 14.4746 14.1991 14.491 14.1343C14.5074 14.0696 14.5107 14.0023 14.5006 13.9363C14.4906 13.8703 14.4675 13.8069 14.4325 13.75ZM4.50005 6.50001C4.50005 5.80777 4.70532 5.13108 5.0899 4.55551C5.47449 3.97994 6.02111 3.53133 6.66066 3.26643C7.3002 3.00152 8.00393 2.93221 8.68286 3.06726C9.3618 3.20231 9.98544 3.53565 10.4749 4.02513C10.9644 4.51462 11.2977 5.13826 11.4328 5.81719C11.5678 6.49612 11.4985 7.19986 11.2336 7.8394C10.9687 8.47894 10.5201 9.02557 9.94454 9.41015C9.36897 9.79474 8.69228 10 8.00005 10C7.07209 9.99901 6.18243 9.62995 5.52627 8.97378C4.87011 8.31762 4.50104 7.42796 4.50005 6.50001Z" fill="#FF8100"/>
</svg>
